<?xml version="1.0" encoding="UTF-8" standalone="no"?>
<svg
   xmlns:dc="http://purl.org/dc/elements/1.1/"
   xmlns:cc="http://creativecommons.org/ns#"
   xmlns:rdf="http://www.w3.org/1999/02/22-rdf-syntax-ns#"
   xmlns:svg="http://www.w3.org/2000/svg"
   xmlns="http://www.w3.org/2000/svg"
   xmlns:sodipodi="http://sodipodi.sourceforge.net/DTD/sodipodi-0.dtd"
   xmlns:inkscape="http://www.inkscape.org/namespaces/inkscape"
   sodipodi:docname="logo.svg"
   inkscape:version="1.0.1 (3bc2e813f5, 2020-09-07)"
   id="svg8"
   version="1.1"
   viewBox="0 0 87.228973 20.249254"
   height="20.249254mm"
   width="87.228973mm">
  <defs
     id="defs2" />
  <sodipodi:namedview
     inkscape:document-rotation="0"
     inkscape:guide-bbox="true"
     showguides="true"
     inkscape:window-maximized="0"
     inkscape:window-y="0"
     inkscape:window-x="0"
     inkscape:window-height="1041"
     inkscape:window-width="1904"
     showgrid="false"
     inkscape:current-layer="layer1"
     inkscape:document-units="mm"
     inkscape:cy="289.26369"
     inkscape:cx="343.99466"
     inkscape:zoom="0.7"
     inkscape:pageshadow="2"
     inkscape:pageopacity="0.0"
     borderopacity="1.0"
     bordercolor="#666666"
     pagecolor="#ffffff"
     id="base"
     fit-margin-top="0"
     fit-margin-left="0"
     fit-margin-right="0"
     fit-margin-bottom="0">
    <sodipodi:guide
       inkscape:locked="false"
       id="guide947"
       orientation="1,0"
       position="181.626,-149.90113" />
  </sodipodi:namedview>
  <metadata
     id="metadata5">
    <rdf:RDF>
      <cc:Work
         rdf:about="">
        <dc:format>image/svg+xml</dc:format>
        <dc:type
           rdf:resource="http://purl.org/dc/dcmitype/StillImage" />
        <dc:title></dc:title>
      </cc:Work>
    </rdf:RDF>
  </metadata>
  <g
     id="layer1"
     inkscape:groupmode="layer"
     inkscape:label="Layer 1"
     transform="translate(-60.278764,-43.694852)">
    <g
       id="text891"
       style="font-style:normal;font-weight:normal;font-size:10.5833px;line-height:1.25;font-family:sans-serif;letter-spacing:0px;word-spacing:0px;fill:#000000;fill-opacity:1;stroke:none;stroke-width:0.264583" />
    <g
       id="g857"
       transform="matrix(1.9503787,0,0,1.9503787,-156.25109,-56.919463)">
      <g
         aria-label="un"
         id="text913"
         style="font-style:normal;font-weight:normal;font-size:10.5833px;line-height:1.25;font-family:sans-serif;letter-spacing:0px;word-spacing:0px;fill:#000000;fill-opacity:1;stroke:none;stroke-width:0.264583">
        <path
           d="m 116.78728,54.326807 v 5.693815 h -1.56632 v -0.677331 q -0.32809,0.370416 -0.78317,0.571498 -0.45508,0.1905 -0.98424,0.1905 -1.12183,0 -1.778,-0.645582 -0.65616,-0.645581 -0.65616,-1.915577 v -3.217323 h 1.65099 v 2.973907 q 0,1.375829 1.15358,1.375829 0.59267,0 0.9525,-0.380999 0.35983,-0.391582 0.35983,-1.153579 v -2.815158 z"
           style="font-style:normal;font-variant:normal;font-weight:bold;font-stretch:normal;font-family:Montserrat;-inkscape-font-specification:'Montserrat Bold';stroke-width:0.264583"
           id="path854" />
        <path
           d="m 121.78258,54.242141 q 1.05833,0 1.70392,0.634998 0.65616,0.634998 0.65616,1.883827 v 3.259656 h -1.65099 v -3.005657 q 0,-0.677331 -0.29634,-1.005413 -0.29633,-0.338666 -0.85724,-0.338666 -0.62442,0 -0.99483,0.391582 -0.37042,0.380999 -0.37042,1.142997 v 2.815157 h -1.65099 v -5.693815 h 1.57691 v 0.666748 q 0.32808,-0.359832 0.81491,-0.550332 0.48683,-0.201082 1.06891,-0.201082 z"
           style="font-style:normal;font-variant:normal;font-weight:bold;font-stretch:normal;font-family:Montserrat;-inkscape-font-specification:'Montserrat Bold';stroke-width:0.264583"
           id="path856" />
      </g>
      <g
         aria-label="pied"
         id="text913-4"
         style="font-style:normal;font-weight:normal;font-size:10.5833px;line-height:1.25;font-family:sans-serif;letter-spacing:0px;word-spacing:0px;fill:#000000;fill-opacity:1;stroke:none;stroke-width:0.264583">
        <path
           d="m 136.14328,54.137641 q 0.79375,0 1.43933,0.370415 0.65616,0.359833 1.02658,1.02658 0.37041,0.656165 0.37041,1.534579 0,0.878414 -0.37041,1.545162 -0.37042,0.656164 -1.02658,1.02658 -0.64558,0.359832 -1.43933,0.359832 -1.09008,0 -1.71449,-0.687915 v 2.656409 h -1.651 v -7.746976 h 1.57691 v 0.656165 q 0.61383,-0.740831 1.78858,-0.740831 z m -0.28575,4.508485 q 0.635,0 1.03716,-0.423332 0.41275,-0.433915 0.41275,-1.153579 0,-0.719665 -0.41275,-1.142997 -0.40216,-0.433915 -1.03716,-0.433915 -0.635,0 -1.04775,0.433915 -0.40216,0.423332 -0.40216,1.142997 0,0.719664 0.40216,1.153579 0.41275,0.423332 1.04775,0.423332 z"
           style="font-style:normal;font-variant:normal;font-weight:bold;font-stretch:normal;font-family:Montserrat;-inkscape-font-specification:'Montserrat Bold';stroke-width:0.264583"
           id="path859" />
        <path
           d="m 140.08025,54.222307 h 1.651 v 5.693815 h -1.651 z m 0.8255,-0.793747 q -0.45508,0 -0.74083,-0.264583 -0.28575,-0.264582 -0.28575,-0.656164 0,-0.391582 0.28575,-0.656165 0.28575,-0.264582 0.74083,-0.264582 0.45508,0 0.74083,0.253999 0.28575,0.253999 0.28575,0.634998 0,0.412748 -0.28575,0.687914 -0.28575,0.264583 -0.74083,0.264583 z"
           style="font-style:normal;font-variant:normal;font-weight:bold;font-stretch:normal;font-family:Montserrat;-inkscape-font-specification:'Montserrat Bold';stroke-width:0.264583"
           id="path861" />
        <path
           d="m 148.84321,57.090381 q 0,0.03175 -0.0317,0.444499 h -4.3074 q 0.11641,0.529165 0.55033,0.836081 0.43392,0.306915 1.0795,0.306915 0.4445,0 0.78316,-0.126999 0.34925,-0.137583 0.64558,-0.423332 l 0.87842,0.952497 q -0.80433,0.920747 -2.3495,0.920747 -0.96308,0 -1.70391,-0.370416 -0.74083,-0.380998 -1.14299,-1.047746 -0.40217,-0.666748 -0.40217,-1.513412 0,-0.836081 0.39158,-1.502829 0.40217,-0.677331 1.09008,-1.047746 0.6985,-0.380999 1.55575,-0.380999 0.83608,0 1.51341,0.359832 0.67733,0.359832 1.05833,1.037163 0.39158,0.666748 0.39158,1.555745 z m -2.95274,-1.703911 q -0.56091,0 -0.94191,0.317499 -0.381,0.317499 -0.46567,0.867831 h 2.80458 q -0.0847,-0.539749 -0.46567,-0.857248 -0.381,-0.328082 -0.93133,-0.328082 z"
           style="font-style:normal;font-variant:normal;font-weight:bold;font-stretch:normal;font-family:Montserrat;-inkscape-font-specification:'Montserrat Bold';stroke-width:0.264583"
           id="path863" />
        <path
           d="m 155.74351,52.063314 v 7.852808 h -1.57691 v -0.656164 q -0.61384,0.740831 -1.778,0.740831 -0.80433,0 -1.46049,-0.359832 -0.64558,-0.359833 -1.016,-1.02658 -0.37042,-0.666748 -0.37042,-1.545162 0,-0.878414 0.37042,-1.545162 0.37042,-0.666748 1.016,-1.02658 0.65616,-0.359832 1.46049,-0.359832 1.09008,0 1.70391,0.687914 v -2.762241 z m -3.06916,6.582812 q 0.62442,0 1.03716,-0.423332 0.41275,-0.433915 0.41275,-1.153579 0,-0.719665 -0.41275,-1.142997 -0.41274,-0.433915 -1.03716,-0.433915 -0.635,0 -1.04775,0.433915 -0.41274,0.423332 -0.41274,1.142997 0,0.719664 0.41274,1.153579 0.41275,0.423332 1.04775,0.423332 z"
           style="font-style:normal;font-variant:normal;font-weight:bold;font-stretch:normal;font-family:Montserrat;-inkscape-font-specification:'Montserrat Bold';stroke-width:0.264583"
           id="path865" />
      </g>
      <g
         aria-label="©"
         id="text913-9"
         style="font-style:normal;font-weight:normal;font-size:10.5833px;line-height:1.25;font-family:sans-serif;letter-spacing:0px;word-spacing:0px;fill:#000000;fill-opacity:1;stroke:none;stroke-width:0.264583">
        <path
           d="m 128.39985,61.05463 q -1.03716,0 -1.89441,-0.497415 -0.84666,-0.497415 -1.34408,-1.354662 -0.48683,-0.857247 -0.48683,-1.883827 0,-1.02658 0.48683,-1.883828 0.49742,-0.857247 1.35466,-1.354662 0.85725,-0.497415 1.905,-0.497415 1.04774,0 1.89441,0.486832 0.85725,0.486831 1.34408,1.344079 0.48683,0.846664 0.48683,1.883827 0,1.037163 -0.49742,1.904994 -0.49741,0.857247 -1.35466,1.354662 -0.85725,0.497415 -1.89441,0.497415 z m 0,-0.80433 q 0.81491,0 1.47108,-0.391582 0.66675,-0.391582 1.03716,-1.05833 0.381,-0.677332 0.381,-1.502829 0,-0.825497 -0.37041,-1.481662 -0.35984,-0.666748 -1.016,-1.047747 -0.65617,-0.380998 -1.48166,-0.380998 -0.8255,0 -1.49225,0.391582 -0.65616,0.380999 -1.02658,1.05833 -0.37041,0.666748 -0.37041,1.481662 0,0.814914 0.37041,1.492245 0.37042,0.666748 1.02658,1.05833 0.65617,0.380999 1.47108,0.380999 z m 0.15875,-0.814914 q -0.65616,0 -1.17475,-0.264583 -0.51858,-0.275166 -0.81491,-0.751414 -0.28575,-0.486832 -0.28575,-1.100663 0,-0.613832 0.28575,-1.09008 0.29633,-0.486832 0.81491,-0.751414 0.51859,-0.275166 1.17475,-0.275166 0.66675,0 1.15358,0.296332 0.48683,0.296333 0.6985,0.804331 l -1.143,0.624415 q -0.24341,-0.465666 -0.71966,-0.465666 -0.32809,0 -0.56092,0.232833 -0.22225,0.222249 -0.22225,0.624415 0,0.402165 0.22225,0.634998 0.23283,0.222249 0.56092,0.222249 0.47625,0 0.71966,-0.465665 l 1.143,0.624414 q -0.21167,0.507999 -0.6985,0.804331 -0.48683,0.296333 -1.15358,0.296333 z"
           style="font-style:normal;font-variant:normal;font-weight:800;font-stretch:normal;font-family:Montserrat;-inkscape-font-specification:'Montserrat Ultra-Bold';stroke-width:0.264583"
           id="path868" />
      </g>
    </g>
    <g
       transform="matrix(0.26458334,0,0,0.26458334,12.09524,3.4017859)"
       id="flowRoot894"
       style="font-style:normal;font-weight:normal;font-size:40px;line-height:1.25;font-family:sans-serif;letter-spacing:0px;word-spacing:0px;fill:#000000;fill-opacity:1;stroke:none" />
    <g
       id="text913-4-0"
       style="font-style:normal;font-weight:normal;font-size:20.6414px;line-height:1.25;font-family:sans-serif;letter-spacing:0px;word-spacing:0px;fill:#000000;fill-opacity:1;stroke:none;stroke-width:0.516037" />
    <g
       id="text913-9-6"
       style="font-style:normal;font-weight:normal;font-size:20.6414px;line-height:1.25;font-family:sans-serif;letter-spacing:0px;word-spacing:0px;fill:#000000;fill-opacity:1;stroke:none;stroke-width:0.516037" />
  </g>
</svg>
